<svg width="52" height="53" fill="none" xmlns="http://www.w3.org/2000/svg"><circle cx="26" cy="26.05" r="26" fill="#092A5E"/><path d="M29.383 29.257a3.04 3.04 0 01-1.187-.994 3.778 3.778 0 01-.479-1.093 3.032 3.032 0 00-.277-.698 1.645 1.645 0 00-1.415-.52 1.68 1.68 0 00-1.384.538 3.077 3.077 0 00-.322.734c-.103.34-.251.667-.435.972-.295.407-.68.743-1.124.98a3.855 3.855 0 00-.546.381.952.952 0 00-.26.614.957.957 0 00.202.635c.479.421 1.146.56 1.755.363.26-.08.51-.192.743-.336a2.925 2.925 0 011.38-.474c.492.035.967.201 1.379.474.233.144.479.256.743.336a1.814 1.814 0 001.755-.363.989.989 0 00.202-.636.951.951 0 00-.26-.613 2.027 2.027 0 00-.457-.291l-.013-.009zM21.216 25.428a1.294 1.294 0 00-.44-1.204.294.294 0 00-.178-.076c-.054.022-.202.349-.027.832.179.484.501.64.555.623.014-.005.058-.054.09-.17v-.005zM27.914 23.173c.224.04.645-.358.766-1.048a1.72 1.72 0 00-.08-.949c-.077-.17-.18-.282-.278-.3h-.031c-.233 0-.618.394-.735 1.052-.12.69.139 1.21.363 1.25l-.005-.005z" fill="#fff"/><path d="M42.378 19.268h-9.592V9.677a.63.63 0 00-.627-.627H19.85a.631.631 0 00-.626.627v9.591H9.627a.63.63 0 00-.627.627v12.31a.63.63 0 00.627.627h9.591v9.59a.63.63 0 00.627.628h12.31a.63.63 0 00.627-.627V32.83h9.591a.63.63 0 00.627-.626v-12.31a.63.63 0 00-.627-.627h.005zM26.31 21.704c.238-1.339 1.214-2.248 2.226-2.069.55.117 1.007.506 1.213 1.03.22.529.278 1.11.17 1.675-.215 1.227-1.056 2.091-1.97 2.091a1.64 1.64 0 01-.255-.022c-1.012-.18-1.621-1.37-1.384-2.71v.005zm-4.057-1.039a1.673 1.673 0 011.214-1.03c1.012-.179 1.988.73 2.225 2.07.238 1.338-.371 2.53-1.383 2.708a1.64 1.64 0 01-.256.023c-.918 0-1.755-.865-1.97-2.092a2.934 2.934 0 01.17-1.674v-.005zm-2.861 4.742c-.39-1.07-.05-2.145.78-2.445a1.443 1.443 0 011.351.242 2.545 2.545 0 01.918 2.525c-.098.48-.425.874-.882 1.057a1.33 1.33 0 01-.439.076 1.99 1.99 0 01-1.728-1.45v-.005zm11.49 6.184c-.752.936-2.1 1.017-3.023.802a4.176 4.176 0 01-1.065-.462 2.113 2.113 0 00-.77-.318c-.278.05-.538.157-.77.318-.332.202-.69.359-1.066.462a3.838 3.838 0 01-.873.098 2.701 2.701 0 01-2.15-.9 2.23 2.23 0 01.197-2.973c.229-.197.475-.372.735-.52.282-.138.528-.34.725-.586.125-.224.228-.457.305-.703.111-.363.268-.712.474-1.03a2.799 2.799 0 012.423-1.084c1.477 0 2.162.605 2.48 1.115.18.314.318.645.412.994.067.265.17.515.31.748.192.264.451.475.752.61.255.125.488.281.703.465a2.234 2.234 0 01.197 2.978l.004-.014zm1.729-6.184a1.99 1.99 0 01-1.729 1.451c-.148 0-.3-.027-.439-.076a1.45 1.45 0 01-.882-1.052 2.545 2.545 0 01.918-2.526c.38-.304.891-.394 1.352-.242.829.3 1.17 1.375.78 2.445z" fill="#fff"/><path d="M24.09 23.173c.224-.04.484-.56.363-1.25-.117-.658-.506-1.052-.735-1.052h-.03c-.1.018-.207.13-.283.3-.116.3-.148.631-.08.95.12.689.541 1.092.765 1.047v.005zM31.393 24.137a.345.345 0 00-.17.076c-.349.296-.515.753-.438 1.205.026.116.076.166.09.17.057.027.38-.134.554-.622.175-.484.027-.81-.026-.833h-.01v.004z" fill="#fff"/></svg>