<svg width="80" height="81" fill="none" xmlns="http://www.w3.org/2000/svg"><path d="M77.634 52.134c-1.513-.302-2.454.471-3.328 1.547-1.446-.168-3.026 0-4.506 0h-4.303v-3.9h3.933c1.076 0 3.026.37 3.699-.605.773-1.144-.336-2.152-1.446-2.152h-2.05c-1.211 0-2.69.201-3.867-.034.134-.874 0-1.85 0-2.723v-2.522h10.322c1.177 0 3.295.437 3.698-1.009.505-1.849-1.815-1.68-2.959-1.68H65.767v-5.212h3.9c1.21 0 3.564.403 3.665-1.278.1-1.916-2.556-1.446-3.8-1.446H65.43v-3.934h7.162c.504.034 1.042 0 1.547 0 .807 1.177 1.983 1.984 3.463 1.58a3.086 3.086 0 002.084-1.781 3.102 3.102 0 00-.168-2.724 3.022 3.022 0 00-2.286-1.513c-.975-.134-1.916.236-2.589.908-.37.37-.37.773-.84.874-.539.034-1.077.034-1.58 0h-6.826v-2.858c0-1.748.1-3.463-.942-5.01-1.277-1.882-3.328-2.555-5.514-2.555H56.05v-6.32c.033-.438 0-.909 0-1.346.874-.571 1.647-1.176 1.849-2.286.605-3.396-4.27-4.942-5.817-1.95-.807 1.547-.1 3.295 1.345 4.17-.202 1.243 0 2.689 0 3.933v3.732h-3.833v-3.127c0-1.21.47-3.362-1.008-3.766-2.119-.571-1.715 2.421-1.715 3.699v3.16h-5.346V4.29c0-1.144.437-3.195-.874-3.665-.706-.236-1.446.1-1.715.773-.202.572-.067 1.311-.067 1.916v10.692h-3.06c-.74 0-1.648.135-2.354-.033.135-1.043 0-2.186 0-3.262 0-1.244.438-3.866-1.58-3.564-1.614.236-1.11 2.489-1.11 3.699v3.16h-3.866v-6.32a8.985 8.985 0 000-1.345c1.11-.707 1.85-1.749 1.681-3.127-.235-1.312-1.244-2.354-2.555-2.59-3.228-.605-4.943 3.733-2.22 5.515.472.302.37.47.37 1.042v6.86c-.907.066-1.849 0-2.756 0-2.186 0-4.203.537-5.514 2.386-1.614 2.253-1.11 5.38-1.11 8.002H7.666c-.538 0-1.042 0-1.58.034-.706-1.143-1.749-1.984-3.228-1.748a3.093 3.093 0 00-2.623 3.261c.101 1.547 1.379 2.79 2.96 2.858.705 0 1.378-.202 1.916-.639.302-.235.47-.605.74-.874.067-.034.067-.168.134-.202.302-.168 1.042 0 1.345 0h7.43c.068 1.278 0 2.59 0 3.9H9.952c-.773 0-1.916-.168-2.555.27-.404.302-.605.84-.538 1.344.067.505.47.908.975 1.076.74.202 1.58.067 2.32.067h2.22c.772 0 1.647-.168 2.386 0-.201.807 0 1.883 0 2.724v2.522H4.136c-1.11 0-3.026-.404-3.564.84-.135.37-.135.773.033 1.143s.505.605.874.706c.538.135 1.312 0 1.85 0h11.364v5.313H10.86c-1.11 0-3.16-.404-3.867.538-.37.47-.37 1.143 0 1.614.505.638 1.312.605 2.051.571h5.615v3.934H7.296c-.504-.034-1.042 0-1.547 0-.74-1.042-1.748-1.816-3.126-1.614A3.132 3.132 0 000 55.093a3.13 3.13 0 002.387 3.026c1.58.37 2.79-.572 3.463-1.916a6.21 6.21 0 001.58 0h7.196c0 2.69-.47 5.783 1.68 7.8 2.085 1.984 5.112 1.513 7.734 1.513v4.438c0 1.446-.134 2.993 0 4.438a3.087 3.087 0 00-1.614 3.8 3.171 3.171 0 004.069 1.815c1.546-.605 2.353-2.286 1.815-3.833-.269-.806-.807-1.042-1.345-1.614-.235-.235-.1-.033-.168-.37-.168-.672 0-1.58 0-2.286v-4.303c0-.572-.168-1.58.034-2.119 1.277.135 2.622 0 3.934 0v4.069c0 1.143-.404 3.396.84 3.9 2.32.941 1.816-2.925 1.816-4.203v-2.32c0-.47-.101-1.042.033-1.48.908.068 1.85.068 2.758 0h2.555v10.693c0 1.076-.404 3.06.571 3.732.874.605 1.917 0 2.085-.975.034-.605.034-1.21 0-1.816V65.45h5.312v4.169c0 1.244-.47 3.8 1.278 3.934 1.85.134 1.412-2.656 1.412-3.9v-4.136h3.867v4.472c0 1.48-.101 2.992 0 4.472-2.657 1.614-1.681 5.75 1.546 5.682 1.413 0 2.657-.942 2.96-2.32.302-1.48-.505-2.757-1.783-3.396a5.949 5.949 0 000-1.547v-7.363c2.59 0 5.682.47 7.733-1.412 2.186-2.051 1.749-5.11 1.749-7.834h7.228a12.4 12.4 0 001.58 0c.707 1.042 1.682 1.85 3.06 1.715 1.413-.101 2.522-1.244 2.623-2.657.135-1.513-.874-2.925-2.354-3.227v.033zM56.99 44.367v4.64c0 2.421.27 5.111-2.084 6.59-1.413.875-3.127.706-4.741.706h-2.892c-6.119 0-12.238-.1-18.358 0-1.95 0-3.765-.302-4.942-2.05-1.009-1.514-.773-3.396-.773-5.145v-4.774h-5.918V41.71H23.2v-4h-5.918v-2.657H23.2v-6.893c0-2.555 1.58-4.875 4.303-5.043 1.278-.067 2.59 0 3.867 0h17.92c5.717 0 7.7 1.816 7.7 7.532v4.471h6.019v2.556H56.99v3.967h6.019V44.3H56.99v.068z" fill="#092A5E"/><path d="M54.368 46.757V29.643c0-3.665-1.412-3.833-4.774-3.833H30.832c-1.042 0-2.32-.168-3.328.033-1.883.404-1.648 2.421-1.648 3.9v21.452c0 .874.135 1.68.942 2.185.706.437 1.647.337 2.454.303h21.62c1.58 0 3.328 0 3.463-1.984.067-1.11 0-2.253 0-3.362v-1.614l.033.034z" fill="#092A5E"/></svg>