<svg width="52" height="53" fill="none" xmlns="http://www.w3.org/2000/svg"><circle cx="26" cy="26.05" r="26" fill="#092A5E"/><path d="M24.008 43.692c.636.155 1.221.197 1.857.197a8.86 8.86 0 003.42-.702 8.592 8.592 0 002.878-1.953c1.655-1.697 2.584-4.001 2.584-6.452 0-2.15-.736-4.249-2.15-5.902V14.838c0-3.804-3.027-6.905-6.74-6.905-3.714 0-6.733 3.101-6.733 6.905v14.05a9.41 9.41 0 00-1.948 7.754c.685 3.504 3.42 6.305 6.832 7.05zm-1.17-13.15V14.838c0-1.696 1.32-3.05 2.977-3.05 1.656 0 2.977 1.354 2.977 3.05v15.704a5.228 5.228 0 012.15 4.25c0 1.601-.686 3.049-1.907 4.103a5.069 5.069 0 01-3.22 1.148 7.43 7.43 0 01-1.07-.103c-1.95-.403-3.513-2.048-3.906-4.052a5.278 5.278 0 011.998-5.346z" fill="#fff"/><path d="M25.037 38.441a3.555 3.555 0 003.078-.754c.878-.702 1.363-1.747 1.363-2.904a3.83 3.83 0 00-1.756-3.196.746.746 0 01-.343-.65v-2.048H26.35c-.393 0-.736-.351-.736-.754s.343-.754.736-.754h1.029v-1.5H26.35c-.393 0-.736-.35-.736-.753s.343-.754.736-.754h1.029v-1.448H26.35c-.393 0-.736-.351-.736-.754 0-.402.343-.754.736-.754h1.029V19.97H26.35c-.393 0-.736-.35-.736-.753s.343-.754.736-.754h1.029v-1.448H26.35c-.393 0-.736-.352-.736-.754 0-.403.343-.754.736-.754h1.029v-.651c0-.848-.686-1.55-1.514-1.55s-1.514.702-1.514 1.55v16.097c0 .249-.15.497-.343.652-1.363.848-1.998 2.398-1.706 4 .243 1.346 1.364 2.502 2.735 2.802v.034z" fill="#fff"/></svg>