<svg fill="none" height="73" width="82" xmlns="http://www.w3.org/2000/svg"><g fill="#092a5e"><path d="m6.961 66.746h67.799l-33.888-58.714-33.91 58.714zm33.888-4.253a2.89 2.89 0 0 1 0-5.78 2.89 2.89 0 0 1 0 5.78zm4.9-34.073-1.988 22.145c-.138 1.595-1.294 2.913-2.889 2.913s-2.75-1.295-2.89-2.913l-1.987-22.145c-.278-3.074 1.78-5.871 4.9-5.871s5.178 2.797 4.9 5.871z"/><path d="m81.094 65.798-36.246-62.782c-1.78-3.075-6.218-3.075-7.975 0l-36.246 62.782c-1.78 3.075.44 6.912 4 6.912h72.49c3.56 0 5.78-3.837 4-6.912zm-4.855 2.659h-70.734c-.648 0-1.064-.717-.74-1.272l35.367-61.28a.856.856 0 0 1 1.48 0l35.32 61.188c.394.555 0 1.34-.693 1.34z"/></g></svg>