<svg fill="none" height="71" width="59" xmlns="http://www.w3.org/2000/svg"><path clip-rule="evenodd" d="m29.256.89c-.35 0-.701.117-1.052.292-6.077 3.564-13.03 5.434-20.1 5.434-1.87 0-3.74-.175-5.61-.468-.584-.116-1.226.059-1.635.468a1.96 1.96 0 0 0 -.76 1.577v33.715c0 8.706 7.42 15.718 14.374 20.743 6.953 5.025 13.906 8.063 13.906 8.063a2.135 2.135 0 0 0 1.695 0s6.953-3.096 13.906-8.063c6.954-5.025 14.374-12.037 14.374-20.743v-33.715c0-.584-.233-1.168-.7-1.577-.468-.41-1.053-.584-1.637-.468-1.87.293-3.74.41-5.61.468-7.07 0-14.023-1.87-20.1-5.434-.35-.175-.7-.292-1.051-.292zm13.439 23.43c.526 0 1.052.176 1.46.585.41.35.643.876.643 1.46 0 .526-.175 1.052-.525 1.461l-16.01 17.062a2.122 2.122 0 0 1 -1.52.643c-.584 0-1.11-.234-1.519-.643l-9.349-10.225c-.35-.41-.584-.935-.526-1.461 0-.526.293-1.052.643-1.402.41-.351.935-.585 1.46-.526.527 0 1.053.292 1.403.642l7.83 8.59 14.49-15.426c.351-.41.877-.643 1.462-.643z" fill="#092a5e" fill-rule="evenodd"/></svg>