<svg width="84" height="79" fill="none" xmlns="http://www.w3.org/2000/svg"><path d="M36.681 14.325l-1.707-1.827c-.525-.524-1.304-.524-1.828 0l-1.573 1.438L18.213.424c-.524-.525-1.303-.525-1.827 0-.524.524-.524 1.303 0 1.827L29.88 15.75l-1.438 1.438c-.524.524-.524 1.303 0 1.827l1.708 1.708 6.545-6.427-.015.03zM83.607 53.11c-.524-.524-1.303-.524-1.828 0l-2.231 2.232-7.729-7.73-8.253 8.255 7.729 7.73-2.232 2.232c-.524.524-.524 1.303 0 1.827.525.524 1.303.524 1.828 0l12.716-12.718c.524-.525.524-1.319 0-1.828zM42.328 14.056c-.525-.524-1.303-.524-1.828 0L29.881 24.677c-.255.255-.39.524-.39.914s.135.659.39.914l12.581 12.583L54.91 26.64 42.328 14.056zM74.56 39.358c-.524-.524-1.303-.524-1.827 0l-2.487 2.486-13.495-13.362L44.305 40.93 57.8 54.293l-2.621 2.622c-.525.524-.525 1.303 0 1.828.524.524 1.303.524 1.827 0L74.56 41.184c.524-.524.524-1.303 0-1.827zM23.98 26.25v3.01c0 .915-.66 1.574-1.573 1.574H7.07c-.78 0-1.573-.66-1.573-1.573V26.25c0-.914.659-1.573 1.573-1.573h15.337c.914.135 1.573.779 1.573 1.573zM22.796 49.305h6.546v4.584h-6.546c-.659 0-1.303.659-1.303 1.303 0 .78.66 1.303 1.303 1.303h6.546v4.585h-6.546c-.659 0-1.303.659-1.303 1.303 0 .644.66 1.303 1.303 1.303h6.546v4.584h-6.546c-.659 0-1.303.66-1.303 1.303 0 .645.66 1.304 1.303 1.304h6.546v1.183c0 3.4-2.756 6.157-6.156 6.157H6.156C2.756 78.277 0 75.521 0 72.12V46.698a6.18 6.18 0 012.486-4.973C5.242 39.762 7.07 36.75 7.73 33.47h13.764c.66 3.281 2.487 6.292 5.243 8.255a6.201 6.201 0 012.486 4.973h-6.545c-.66 0-1.303.524-1.303 1.303.134.66.778 1.304 1.437 1.304h-.015z" fill="#092A5E"/></svg>