<svg width="81" height="75" fill="none" xmlns="http://www.w3.org/2000/svg"><path fill-rule="evenodd" clip-rule="evenodd" d="M48.667 8.446c0-4.403-3.584-7.976-8-7.976s-8 3.573-8 7.976V19.08h16V8.446zM.667 66.937c0 2.117.842 4.145 2.344 5.64a8.018 8.018 0 005.656 2.337h64c2.123 0 4.157-.84 5.656-2.338a7.97 7.97 0 002.344-5.639V29.715h-80v37.222zm45.314-18.5v-.058l.006-.008c.035-.635.19-1.143.472-1.528.066-.09.15-.163.23-.232.018-.026.04-.045.063-.066.408-.354.96-.532 1.69-.532.435 0 .88.059 1.27.112.232.032.453.064.65.077.257.019.54.058.843.098.44.064.889.125 1.337.125.397 0 .805-.048 1.186-.226h.005c.331-.087.633-.332.803-.625a.308.308 0 00.038-.093l.01-.008c.301-.42.552-1.01.725-1.86a.547.547 0 01.31-.386 11.2 11.2 0 014.618-1.01c1.574 0 2.691.303 3.44.563-.02-1.672.35-5.235 3.678-7.266a.556.556 0 01.421-.064.53.53 0 01.336.263c2.238 4.05 4.555 8.234 1.246 12.313-.02 2.257.143 4.041.37 5.429v.037c.016.237.075.46.152.68-.005.022-.005.043-.005.067 0 .04.008.083.016.123a.615.615 0 00.045.114v.047c0 .06.013.112.037.163.505 2.18 1.131 3.015 1.14 3.028a.52.52 0 01.12.386c0 .058-.502 5.753-6.865 6.886a12.33 12.33 0 01-2.13.215c-1.374 0-2.291-.367-2.736-1.09-.555-.912-.1-2.002.008-2.23.54-1.588 1.008-2.957.343-4.48-.698-1.596-1.138-2.03-2.053-2.03-.632 0-1.528.21-3.005.703-1.117.372-2.13.558-3.014.558-3.357 0-4.573-2.619-5.255-4.905-.409-1.359-.585-2.436-.553-3.286l.008-.003zM16.667 37.692h16a2.66 2.66 0 012.666 2.659 2.66 2.66 0 01-2.666 2.659h-16A2.66 2.66 0 0114 40.35a2.66 2.66 0 012.667-2.659zm0 10.635h16a2.66 2.66 0 012.666 2.659 2.66 2.66 0 01-2.666 2.659h-16A2.66 2.66 0 0114 50.984a2.66 2.66 0 012.667-2.658zm0 10.635h16a2.66 2.66 0 012.666 2.659 2.66 2.66 0 01-2.666 2.659h-16A2.66 2.66 0 0114 61.619a2.66 2.66 0 012.667-2.658z" fill="#092A5E"/><path fill-rule="evenodd" clip-rule="evenodd" d="M78.323 10.782a8.007 8.007 0 00-5.656-2.337H51.333V19.08a2.66 2.66 0 01-2.666 2.659h-16A2.66 2.66 0 0130 19.08V8.445H8.667c-2.123 0-4.158.84-5.656 2.337a7.97 7.97 0 00-2.344 5.64v10.634h80V16.421a7.954 7.954 0 00-2.344-5.639z" fill="#092A5E"/></svg>