<svg fill="none" height="35" width="60" xmlns="http://www.w3.org/2000/svg" xmlns:xlink="http://www.w3.org/1999/xlink"><clipPath id="a"><path d="m0 0h60v35h-60z"/></clipPath><g clip-path="url(#a)"><path d="m60 0h-60v35h60z" fill="#f00"/><path d="m24 0h-24v35h24z" fill="#060"/><path clip-rule="evenodd" d="m31.82 24.258c-3.02-.086-16.87-8.363-16.97-9.674l.76-1.225c1.37 1.914 15.54 9.961 16.93 9.674z" fill="#ff0" fill-rule="evenodd"/><path d="m31.82 24.287c-1.61-.048-6.18-2.392-9.6-4.383-1.96-1.139-3.77-2.287-5.12-3.244-1.02-.727-2.25-1.675-2.28-2.077v-.019l.78-1.215c0-.01.01-.01.02-.01s.02 0 .02.01c.7.976 4.75 3.54 8.45 5.655 4.36 2.489 7.83 4.134 8.45 4.01.01 0 .02 0 .03.01s.01.019 0 .028l-.72 1.225c0 .01-.01.01-.03.01zm-16.94-9.694c.07.603 3.16 2.823 7.37 5.273 3.4 1.98 7.94 4.306 9.55 4.373l.69-1.167c-.87.038-4.82-1.972-8.43-4.02-3.66-2.086-7.66-4.622-8.44-5.636z" fill="#000"/><path clip-rule="evenodd" d="m15.46 13.196c-.27.699 3.61 2.995 8.29 5.723 4.68 2.717 8.71 4.401 9.01 4.162.02-.029.15-.239.14-.239-.06.077-.19.105-.41.048-1.26-.345-4.56-1.8-8.64-4.163-4.08-2.364-7.63-4.546-8.18-5.474a.484.484 0 0 1 -.06-.268h-.01l-.12.201zm16.44 11.1c-.05.087-.15.096-.33.077-1.13-.124-4.56-1.713-8.62-4.038-4.72-2.708-8.62-5.168-8.2-5.809l.12-.191.02.01c-.38 1.09 7.69 5.511 8.17 5.789 4.67 2.765 8.61 4.392 8.96 3.971l-.12.192z" fill="#ff0" fill-rule="evenodd"/><path d="m31.71 24.412c-.04 0-.09 0-.15-.01-1.15-.124-4.62-1.751-8.63-4.048-5.36-3.072-8.05-4.919-8.23-5.646a.233.233 0 0 1 .03-.2l.11-.192c.01-.01.02-.02.03-.01l.02.01c.01 0 .01.01.02.01v.018c-.29.843 4.79 3.857 7.84 5.58.16.095.27.153.32.181 4.61 2.737 8.58 4.383 8.92 3.972.01-.01.03-.01.04-.01.01.01.02.02.01.038l-.13.21c-.04.077-.11.096-.2.096zm-16.86-10-.07.124a.182.182 0 0 0 -.02.162c.18.718 2.86 2.555 8.21 5.608 4 2.297 7.46 3.914 8.6 4.039.18.019.26.019.3-.058l.07-.115c-.82.24-5.21-1.837-8.89-4.019-.04-.029-.15-.086-.32-.182-5.23-2.947-7.88-4.813-7.88-5.56zm17.8 8.708c-.8 0-4.84-1.819-8.92-4.182-5.03-2.928-8.57-5.053-8.3-5.751l.02-.03.12-.2c.01-.01.01-.01.03-.01h.01c.01 0 .02 0 .02.01.01.01.01.01.01.019-.01.086.02.191.06.258.58.986 4.67 3.436 8.17 5.464 3.84 2.23 7.25 3.78 8.63 4.163.19.048.32.039.37-.038 0-.01.01-.01.02-.01s.02 0 .03.01c.01.02.01.02-.12.249l-.02.029s0 .01-.01.01c-.02.009-.06.009-.12.009zm-17.16-9.914c-.26.708 4.27 3.349 8.28 5.684 4.8 2.794 8.67 4.364 8.97 4.163l.01-.02c.03-.047.05-.086.07-.114-.08.028-.2.019-.34-.02-1.39-.382-4.8-1.933-8.64-4.162-6.67-3.876-7.88-4.967-8.19-5.483a.592.592 0 0 1 -.06-.211l-.1.163z" fill="#000"/><path clip-rule="evenodd" d="m24.02 15.378c3.02-.02 6.76-.393 8.9-1.216l-.46-.717c-1.27.67-5.02 1.11-8.47 1.177-4.07-.038-6.95-.402-8.39-1.32l-.44.765c2.65 1.072 5.37 1.301 8.86 1.31z" fill="#ff0" fill-rule="evenodd"/><path d="m24.02 15.406c-3.5-.01-6.2-.239-8.86-1.31-.01 0-.01-.01-.02-.02v-.019l.44-.765c0-.01.01-.01.02-.01h.02c1.34.861 4 1.282 8.37 1.32 4.44-.086 7.49-.67 8.45-1.177.01-.009.03 0 .04.01l.46.718c0 .01.01.019 0 .019 0 .01-.01.01-.02.02-1.48.564-4.6 1.186-8.9 1.214zm-8.81-1.349c2.65 1.062 5.33 1.282 8.81 1.302 4.27-.03 7.37-.642 8.86-1.197l-.43-.67c-.99.508-4.04 1.091-8.45 1.168-4.36-.038-7.02-.46-8.38-1.311z" fill="#000"/><path clip-rule="evenodd" d="m33.04 14.182c-.07.114-1.47.574-3.54.918-1.4.201-3.22.383-5.5.383-2.16 0-3.93-.144-5.27-.316-2.17-.325-3.28-.775-3.7-.938.04-.076.06-.124.1-.2 1.19.45 2.31.727 3.63.918 1.33.172 3.08.326 5.23.316 2.27 0 4.07-.191 5.46-.392 2.12-.326 3.27-.747 3.43-.938zm-.4-.728c-.23.172-1.37.565-3.38.871a39.56 39.56 0 0 1 -5.23.354c-2.07 0-3.76-.134-5.05-.306-2.04-.258-3.13-.718-3.52-.852.04-.067.08-.124.12-.191.3.143 1.35.555 3.42.832 1.27.173 2.97.297 5.03.297 2.17 0 3.86-.172 5.19-.354 2.02-.268 3.11-.756 3.27-.88l.15.23z" fill="#ff0" fill-rule="evenodd"/><path d="m23.96 15.502c-1.84 0-3.6-.105-5.23-.316-2.1-.315-3.23-.756-3.66-.918l-.04-.02c-.01 0-.01-.009-.02-.019s0-.019 0-.019c.02-.028.03-.057.04-.086l.06-.115c.01-.01.02-.019.04-.01 1.14.431 2.26.718 3.62.92 1.64.21 3.38.315 5.18.315h.04c1.85 0 3.64-.124 5.46-.392 2.09-.325 3.25-.737 3.42-.928.01-.01.01-.01.02-.01s.02.01.02.01l.15.248c.01.01.01.02 0 .03v.009c-.11.134-1.56.593-3.55.928a38.62 38.62 0 0 1 -5.51.383c-.01-.01-.02-.01-.04-.01zm-8.88-1.292.02.01c.43.162 1.56.603 3.65.918 1.63.211 3.39.316 5.22.316h.04c1.93 0 3.78-.134 5.5-.383 2.04-.334 3.36-.784 3.51-.89l-.12-.2c-.23.2-1.31.593-3.42.928-1.82.258-3.61.383-5.47.392-1.82 0-3.58-.105-5.23-.316-1.36-.2-2.47-.478-3.61-.909-.02.029-.03.058-.05.096-.02 0-.03.02-.04.038zm8.91.488c-1.82 0-3.55-.105-5.01-.316-1.81-.23-2.86-.612-3.36-.794-.06-.019-.12-.048-.17-.057-.01 0-.01-.01-.02-.02-.01-.009 0-.018 0-.018.04-.067.08-.125.12-.192.01-.01.02-.019.04-.01.18.087 1.18.527 3.41.833 1.01.134 2.69.297 4.97.297h.05c2.36 0 4.09-.201 5.18-.354 1.93-.259 3.06-.737 3.26-.88.01-.01.02-.01.02-.01.01 0 .02.01.02.01l.15.239v.01c0 .009 0 .018-.01.018-.22.172-1.35.565-3.4.88-1.71.24-3.42.355-5.23.355.01.01-.01.01-.02.01zm-8.49-1.196c.04.01.08.029.13.048.5.182 1.55.565 3.35.785 1.46.2 3.19.306 5 .306h.04c1.81 0 3.52-.115 5.22-.354 1.98-.306 3.09-.68 3.35-.852l-.12-.191c-.22.134-1.26.612-3.26.87-1.1.154-2.83.355-5.19.355h-.05c-2.29 0-3.97-.163-4.98-.297-2.16-.297-3.17-.718-3.41-.823a.75.75 0 0 1 -.08.153z" fill="#000"/><path clip-rule="evenodd" d="m14.09 18.87c1.86.957 5.99 1.436 9.9 1.474 3.56.01 8.2-.526 9.93-1.407l-.05-.957c-.54.814-5.51 1.589-9.92 1.56-4.41-.028-8.5-.68-9.87-1.53z" fill="#ff0" fill-rule="evenodd"/><path d="m24.04 20.363h-.05c-5.28-.048-8.58-.794-9.91-1.473-.01-.01-.02-.02-.02-.03l-.01-.86c0-.01.01-.02.01-.03.01-.009.02 0 .03 0 1.38.853 5.52 1.494 9.85 1.523 4.37.028 9.36-.747 9.9-1.541.01-.01.02-.02.03-.01.01 0 .02.01.02.029l.05.957c0 .01-.01.019-.02.029-1.73.89-6.37 1.406-9.88 1.406zm-9.92-1.512c1.33.68 4.62 1.417 9.87 1.464h.05c3.49 0 8.1-.516 9.85-1.397l-.04-.861c-.75.804-5.54 1.54-9.9 1.512-4.3-.029-8.41-.66-9.84-1.502z" fill="#000"/><path clip-rule="evenodd" d="m34.01 18.727v.23c-.26.296-1.89.746-3.94 1.062-1.56.23-3.59.402-6.13.402-2.41 0-4.33-.163-5.81-.383-2.35-.325-3.86-.9-4.16-1.072v-.268c.91.575 3.37.996 4.19 1.13 1.48.22 3.39.382 5.78.382 2.52 0 4.54-.172 6.09-.402 1.48-.2 3.57-.727 3.98-1.08zm0-.813v.23c-.26.296-1.89.746-3.94 1.062-1.56.23-3.59.402-6.13.402-2.41 0-4.33-.163-5.81-.383-2.35-.326-3.86-.9-4.16-1.072v-.268c.91.574 3.37.995 4.19 1.13 1.48.22 3.39.382 5.78.382 2.52 0 4.54-.172 6.09-.402 1.48-.2 3.57-.727 3.98-1.081z" fill="#ff0" fill-rule="evenodd"/><path d="m23.94 20.45c-2.13 0-4.09-.125-5.82-.383-2.25-.316-3.81-.871-4.17-1.082-.01-.01-.01-.01-.01-.019v-.268c0-.01.01-.019.02-.028h.03c.91.574 3.43 1.004 4.18 1.129 1.72.249 3.66.383 5.78.383 2.24 0 4.29-.134 6.09-.402 1.46-.201 3.55-.728 3.96-1.072.01-.01.02-.01.03-.01s.02.01.02.03v.229c0 .01 0 .01-.01.019-.27.306-1.94.765-3.96 1.072-1.82.268-3.89.402-6.14.402zm-9.94-1.493c.27.143 1.71.727 4.14 1.062 1.73.258 3.68.383 5.81.383 2.25 0 4.31-.134 6.12-.402 1.96-.306 3.64-.756 3.92-1.053v-.162c-.51.354-2.53.86-3.94 1.052-1.81.268-3.86.402-6.1.402-2.12 0-4.07-.124-5.79-.383-.74-.115-3.21-.536-4.16-1.11v.21zm9.94.68c-2.13 0-4.09-.125-5.82-.384-2.25-.315-3.81-.87-4.17-1.08-.01-.01-.01-.01-.01-.02v-.268c0-.01.01-.02.02-.029.01-.01.02 0 .03 0 .91.584 3.43 1.005 4.18 1.13 1.72.248 3.66.382 5.78.382 2.24 0 4.29-.134 6.09-.402 1.46-.2 3.55-.727 3.96-1.081.01-.01.02-.01.02-.01.01 0 .02.01.02.02v.239c0 .01 0 .01-.01.019-.27.306-1.94.766-3.96 1.072-1.81.277-3.88.411-6.13.411zm-9.94-1.495c.27.144 1.71.728 4.14 1.063 1.73.258 3.68.382 5.81.382 2.25 0 4.31-.134 6.12-.402 1.96-.306 3.64-.756 3.92-1.052v-.163c-.51.354-2.53.861-3.94 1.053-1.8.268-3.86.402-6.1.402-2.12 0-4.07-.125-5.79-.383-.74-.115-3.2-.536-4.16-1.11z" fill="#000"/><path clip-rule="evenodd" d="m23.98 24.095c-4.28-.028-7.94-1.12-8.72-1.291l.56.842c1.37.555 4.94 1.368 8.19 1.282s6.09-.335 8.09-1.263l.58-.88c-1.35.612-6 1.31-8.7 1.31z" fill="#ff0" fill-rule="evenodd"/><path d="m23.52 24.957c-3.07 0-6.36-.747-7.7-1.292-.01 0-.01-.01-.01-.01l-.56-.842c-.01-.01-.01-.019 0-.028.01-.01.02-.01.03-.01.09.02.22.058.39.096 1.24.325 4.55 1.177 8.32 1.196 2.72-.01 7.36-.708 8.7-1.311.01-.01.03 0 .03.01.01.01.01.019 0 .028l-.58.88-.01.01c-2.09.976-5.13 1.187-8.1 1.263-.18.01-.34.01-.51.01zm-7.67-1.33c1.42.564 4.98 1.359 8.17 1.273 2.97-.087 6-.297 8.07-1.254l.52-.794c-1.45.602-5.96 1.272-8.64 1.272-3.77-.019-7.08-.88-8.33-1.196a2.763 2.763 0 0 1 -.32-.086z" fill="#000"/><path clip-rule="evenodd" d="m32.33 23.464c-.09.125-.17.249-.26.364-.94.316-2.43.65-3.06.746-1.28.25-3.27.44-5.03.44-3.79-.057-6.89-.765-8.35-1.368l-.12-.191.02-.03.2.078c2.59.89 5.51 1.244 8.27 1.31 1.75.01 3.51-.19 4.93-.43 2.18-.421 3.06-.727 3.33-.871zm.5-.794c0 .01.01.01 0 0-.06.115-.12.21-.19.316-.5.172-1.87.555-3.87.823-1.31.172-2.13.335-4.75.383-4.9-.115-8.08-1.034-8.83-1.264l-.11-.2c2.84.707 5.74 1.205 8.94 1.253 2.39-.048 3.41-.22 4.72-.383 2.33-.344 3.5-.708 3.85-.823 0-.01-.01-.01-.02-.019z" fill="#ff0" fill-rule="evenodd"/><path d="m23.98 25.053c-3.86-.058-6.92-.776-8.36-1.369-.01 0-.01-.01-.01-.01l-.12-.19c-.01-.01 0-.02 0-.03l.02-.028c.01-.01.02-.02.03-.01l.2.077c2.32.794 5.09 1.234 8.26 1.301h.08c1.9 0 3.68-.239 4.85-.43 2.43-.47 3.15-.785 3.32-.871l.07-.038c.01-.01.02 0 .03.009.01.01.01.02 0 .029-.09.124-.18.249-.26.363l-.01.01c-.94.316-2.42.65-3.06.756-1.34.249-3.36.43-5.04.43zm-8.33-1.417c2.15.89 5.73 1.33 8.33 1.36 1.67 0 3.69-.183 5.02-.441.64-.096 2.11-.43 3.05-.747.06-.086.13-.172.19-.267-.21.105-.99.42-3.31.86-1.18.202-3 .441-4.93.441-3.17-.076-5.96-.517-8.28-1.311l-.17-.067zm8.38.594c-4.38-.106-7.42-.843-8.84-1.264-.01 0-.01-.01-.02-.01l-.11-.2c-.01-.01 0-.02 0-.029.01-.01.02-.01.03-.01 3.25.814 6.09 1.206 8.93 1.254 2.13-.048 3.18-.182 4.3-.335l.41-.057c2.25-.335 3.42-.69 3.81-.804v-.01c0-.01.01-.019.02-.019l.25-.086c.01 0 .03 0 .03.01v.01c.01.009.01.018 0 .028-.06.105-.13.21-.2.316 0 .01-.01.01-.01.01-.68.23-2.09.583-3.87.822-.19.03-.38.048-.56.077-1.03.124-1.94.249-4.17.297zm-8.81-1.311c1.42.43 4.45 1.148 8.81 1.253 2.23-.038 3.14-.163 4.19-.306.18-.029.36-.048.56-.077 1.76-.239 3.17-.583 3.85-.813.05-.086.11-.172.16-.249l-.16.058v.019c0 .01-.01.01-.02.019l-.04.01c-.39.114-1.57.468-3.82.803l-.41.058c-1.11.153-2.17.287-4.31.335-2.84-.048-5.66-.44-8.89-1.244z" fill="#000"/><path clip-rule="evenodd" d="m32.88 18.115c.01 2.689-1.43 5.11-2.59 6.172-1.64 1.512-3.82 2.479-6.36 2.527-2.84.047-5.51-1.723-6.23-2.498-1.4-1.522-2.54-3.455-2.58-6.048.17-2.938 1.38-4.986 3.13-6.392 1.75-1.407 4.07-2.087 6.01-2.039 2.24.058 4.85 1.11 6.65 3.187 1.19 1.359 1.7 2.842 1.97 5.09zm-8.92-9.225c5.45 0 9.93 4.24 9.93 9.445 0 5.206-4.48 9.445-9.93 9.445s-9.89-4.24-9.89-9.445c0-5.206 4.45-9.445 9.89-9.445z" fill="#ff0" fill-rule="evenodd"/><path d="m23.96 27.808c-5.47 0-9.92-4.248-9.92-9.473s4.45-9.474 9.92-9.474c2.65 0 5.14.986 7.03 2.775 1.89 1.8 2.93 4.172 2.93 6.69 0 2.516-1.04 4.899-2.93 6.688-1.88 1.809-4.38 2.794-7.03 2.794zm0-18.89c-5.44 0-9.86 4.22-9.86 9.417 0 5.196 4.42 9.416 9.86 9.416 2.63 0 5.11-.986 6.99-2.766s2.91-4.143 2.91-6.65c0-2.508-1.03-4.871-2.91-6.651-1.87-1.78-4.36-2.766-6.99-2.766zm-.14 17.914c-2.91 0-5.5-1.827-6.13-2.507-1.71-1.856-2.56-3.837-2.59-6.067.16-2.708 1.22-4.87 3.14-6.411 1.64-1.311 3.95-2.096 6.03-2.048 2.46.057 5.02 1.292 6.67 3.196 1.13 1.31 1.69 2.737 1.97 5.1.01 2.603-1.34 5.034-2.59 6.192-1.75 1.617-3.96 2.488-6.38 2.526-.04.02-.08.02-.12.02zm.25-16.976c-2.02 0-4.22.766-5.8 2.038-1.91 1.531-2.96 3.675-3.12 6.374.03 2.21.87 4.191 2.57 6.029.62.67 3.2 2.488 6.09 2.488h.12c2.4-.039 4.59-.91 6.34-2.517 1.25-1.149 2.59-3.56 2.58-6.153-.28-2.354-.83-3.77-1.96-5.072-1.65-1.905-4.19-3.12-6.63-3.177-.06-.01-.12-.01-.19-.01z" fill="#000"/><path clip-rule="evenodd" d="m23.99 8.861c5.45 0 9.9 4.259 9.9 9.474s-4.45 9.474-9.9 9.474-9.9-4.259-9.9-9.474 4.45-9.474 9.9-9.474zm-9.68 9.474c0 5.1 4.37 9.263 9.68 9.263s9.68-4.172 9.68-9.263c0-5.1-4.37-9.263-9.68-9.263s-9.68 4.163-9.68 9.263z" fill="#ff0" fill-rule="evenodd"/><path d="m23.99 27.837c-5.48 0-9.93-4.258-9.93-9.502s4.45-9.503 9.93-9.503 9.93 4.259 9.93 9.503-4.45 9.502-9.93 9.502zm0-18.947c-5.44 0-9.87 4.239-9.87 9.445s4.43 9.445 9.87 9.445 9.87-4.24 9.87-9.445c0-5.206-4.43-9.445-9.87-9.445zm0 18.737c-2.58 0-5.01-.967-6.85-2.727-1.84-1.761-2.86-4.096-2.86-6.565 0-2.47 1.02-4.804 2.86-6.565 1.84-1.76 4.28-2.727 6.85-2.727 2.58 0 5.01.966 6.85 2.727 1.84 1.76 2.86 4.096 2.86 6.565s-1.02 4.804-2.86 6.564c-1.84 1.761-4.27 2.728-6.85 2.728zm0-18.536c-2.56 0-4.98.966-6.81 2.717-1.83 1.752-2.84 4.067-2.84 6.527s1.01 4.775 2.84 6.526a9.802 9.802 0 0 0 6.81 2.718c2.56 0 4.98-.967 6.81-2.718s2.84-4.067 2.84-6.526c0-2.46-1.01-4.775-2.84-6.527a9.802 9.802 0 0 0 -6.81-2.717z" fill="#000"/><path clip-rule="evenodd" d="m24 9.646c4.97 0 9.07 3.904 9.07 8.68 0 4.774-4.1 8.679-9.07 8.679s-9.07-3.904-9.07-8.68c0-4.775 4.1-8.68 9.07-8.68zm-8.85 8.68c0 4.66 4 8.468 8.85 8.468s8.85-3.808 8.85-8.469c0-4.66-4-8.469-8.85-8.469s-8.85 3.809-8.85 8.47z" fill="#ff0" fill-rule="evenodd"/><path d="m24 27.033c-2.41 0-4.69-.909-6.42-2.555-1.73-1.655-2.68-3.837-2.68-6.153s.95-4.498 2.68-6.153c1.72-1.646 4-2.555 6.42-2.555 2.41 0 4.69.909 6.42 2.555 1.73 1.655 2.68 3.837 2.68 6.153s-.95 4.498-2.68 6.153a9.271 9.271 0 0 1 -6.42 2.555zm0-17.359c-2.4 0-4.66.9-6.38 2.546-1.72 1.636-2.66 3.808-2.66 6.105s.95 4.469 2.66 6.115a9.19 9.19 0 0 0 6.38 2.545c2.4 0 4.66-.9 6.38-2.545 1.72-1.637 2.66-3.809 2.66-6.115 0-2.297-.95-4.469-2.66-6.115a9.2 9.2 0 0 0 -6.38-2.536zm0 17.149c-2.36 0-4.58-.89-6.27-2.498s-2.61-3.742-2.61-6 .93-4.393 2.61-6a9.027 9.027 0 0 1 6.27-2.498c2.36 0 4.58.89 6.27 2.498 1.69 1.607 2.61 3.742 2.61 6s-.93 4.392-2.61 6c-1.69 1.617-3.91 2.498-6.27 2.498zm0-16.938c-2.34 0-4.55.88-6.23 2.478-1.67 1.598-2.6 3.723-2.6 5.962 0 2.249.92 4.364 2.6 5.962 1.67 1.598 3.88 2.478 6.23 2.478s4.55-.88 6.23-2.478c1.67-1.598 2.6-3.723 2.6-5.962 0-2.249-.92-4.364-2.6-5.962a8.992 8.992 0 0 0 -6.23-2.478z" fill="#000"/><path clip-rule="evenodd" d="m24.4 8.823h-.85v19.043h.85z" fill="#ff0" fill-rule="evenodd"/><path d="m24.4 27.885h-.85c-.02 0-.03-.01-.03-.029v-19.043c0-.01 0-.01.01-.02.01-.009.01-.009.02-.009h.85c.02 0 .03.01.03.029v19.043c0 .01 0 .01-.01.02-.01.009-.01.009-.02.009zm-.82-.048h.79v-18.986h-.79z" fill="#000"/><path clip-rule="evenodd" d="m24.31 8.708h.22v19.254h-.22zm-.84 0h.22v19.254h-.22z" fill="#ff0" fill-rule="evenodd"/><path d="m23.69 28h-.22c-.02 0-.03-.01-.03-.029v-19.254c0-.019.01-.028.03-.028h.22c.02 0 .03.01.03.028v19.254c0 .01 0 .01-.01.02-.01.009-.01.009-.02.009zm-.19-.057h.16v-19.206h-.16zm1.03.057h-.22c-.02 0-.03-.01-.03-.029v-19.254c0-.01 0-.01.01-.019.01-.01.01-.01.02-.01h.22c.02 0 .03.01.03.03v19.252c0 .01 0 .01-.01.02-.01.009-.01.009-.02.009zm-.19-.057h.16v-19.206h-.16z" fill="#000"/><path clip-rule="evenodd" d="m33.9 18.698v-.708l-.6-.535-3.4-.862-4.9-.478-5.9.287-4.2.957-.85.603v.708l2.15-.919 5.1-.765h4.9l3.6.382 2.5.575z" fill="#ff0" fill-rule="evenodd"/><path d="m33.9 18.727h-.01l-1.6-.756-2.49-.574-3.6-.383h-4.9l-5.09.766-2.14.919h-.03c-.01-.01-.01-.01-.01-.02v-.708c0-.01 0-.019.01-.019l.85-.603h.01l4.2-.957 5.91-.287 4.9.479 3.4.861s.01 0 .01.01l.6.535c.01.01.01.01.01.02v.708c0 .01-.01.019-.01.019-.01-.01-.02-.01-.02-.01zm-7.7-1.77 3.6.383 2.5.574 1.56.746v-.65l-.58-.517-3.39-.861-4.9-.479-5.9.287-4.19.957-.83.593v.651l2.11-.909h.01l5.1-.765z" fill="#000"/><path clip-rule="evenodd" d="m23.99 16.87c2.34 0 4.61.211 6.41.546 1.86.354 3.16.804 3.61 1.302v.248c-.54-.622-2.3-1.071-3.65-1.34-1.79-.334-4.04-.545-6.36-.545-2.45 0-4.74.23-6.5.555-1.41.268-3.3.804-3.53 1.33v-.258c.13-.363 1.53-.909 3.5-1.282 1.77-.335 4.06-.555 6.52-.555zm.01-.813c2.34 0 4.61.21 6.41.546 1.86.354 3.16.804 3.61 1.301v.25c-.54-.623-2.3-1.073-3.65-1.34-1.79-.336-4.04-.546-6.36-.546-2.45 0-4.73.23-6.49.555-1.36.249-3.32.804-3.54 1.33v-.258c.13-.364 1.56-.919 3.5-1.283 1.76-.334 4.05-.555 6.52-.555z" fill="#ff0" fill-rule="evenodd"/><path d="m13.97 18.985c-.01 0-.01 0 0 0-.02 0-.03-.019-.03-.028v-.259c.14-.392 1.62-.938 3.52-1.301 1.89-.354 4.21-.546 6.54-.555h.07c2.2 0 4.45.191 6.35.545 1.94.373 3.19.823 3.63 1.311 0 .01.01.01.01.02v.248c0 .01-.01.02-.02.029-.01 0-.02 0-.03-.01-.57-.66-2.52-1.11-3.64-1.33-1.9-.354-4.16-.545-6.36-.545-2.29 0-4.6.2-6.49.555-1.54.296-3.29.823-3.51 1.31-.02.01-.03.01-.04.01zm10.09-1.933c2.18 0 4.42.192 6.3.546 1.09.21 2.98.65 3.62 1.292v-.163c-.43-.469-1.67-.919-3.59-1.282-1.89-.355-4.14-.546-6.33-.546h-.07c-2.32 0-4.63.201-6.52.555-1.57.297-3.32.842-3.47 1.254v.153c.42-.546 2.36-1.034 3.5-1.254 1.9-.354 4.21-.555 6.5-.555zm-10.09 1.13c-.02 0-.03-.01-.03-.03v-.268c.14-.392 1.65-.956 3.52-1.3 1.89-.355 4.21-.546 6.54-.556h.06c2.2 0 4.45.192 6.35.546 1.94.373 3.19.823 3.63 1.31 0 .01.01.01.01.02v.249c0 .01-.01.019-.02.029-.01 0-.02 0-.03-.01-.57-.66-2.52-1.11-3.64-1.33-1.9-.354-4.16-.546-6.36-.546-2.28 0-4.59.201-6.48.555-1.56.287-3.32.842-3.52 1.311-.01.01-.02.02-.03.02zm10.09-1.943c2.18 0 4.42.191 6.3.545 1.09.21 2.98.651 3.62 1.292v-.163c-.43-.468-1.67-.918-3.59-1.282-1.91-.354-4.19-.545-6.4-.545-2.32 0-4.64.2-6.52.555-2.02.373-3.35.938-3.48 1.263v.153c.4-.517 2.27-1.024 3.51-1.253 1.9-.355 4.2-.556 6.49-.556.03-.01.05-.01.07-.01z" fill="#000"/><path clip-rule="evenodd" d="m23.95 11.914c3.68-.02 6.9.497 8.37 1.215l.54.89c-1.28-.66-4.75-1.35-8.9-1.244-3.39.019-7 .354-8.82 1.282l.64-1.024c1.49-.746 5-1.12 8.17-1.12z" fill="#ff0" fill-rule="evenodd"/><path d="m15.14 14.076c-.01 0-.02 0-.02-.01-.01-.01-.01-.019 0-.028l.64-1.024.01-.01c1.55-.765 5.23-1.12 8.18-1.12 3.55-.019 6.84.46 8.38 1.216l.01.01.54.89c.01.009 0 .028 0 .028-.01.01-.02.01-.03.01-1.34-.69-4.82-1.34-8.89-1.235-5.54.029-7.9.814-8.8 1.283-.01-.01-.02-.01-.02-.01zm.66-1.024-.58.938c.97-.469 3.36-1.206 8.74-1.244 3.99-.096 7.42.526 8.83 1.206l-.48-.804c-1.54-.747-4.81-1.225-8.35-1.206-2.96 0-6.62.345-8.16 1.11z" fill="#000"/><path clip-rule="evenodd" d="m24 12.64c2.1-.009 4.13.106 5.75.384 1.5.268 2.94.67 3.14.89l.16.268c-.5-.316-1.74-.66-3.33-.948-1.6-.287-3.63-.383-5.72-.383-2.37-.01-4.22.115-5.8.374-1.67.296-2.83.727-3.12.928l.16-.287c.56-.268 1.44-.603 2.92-.852 1.63-.277 3.49-.364 5.84-.373zm0-.813c2.01-.01 4 .106 5.55.374 1.22.23 2.43.583 2.87.9l.23.353c-.4-.42-1.88-.823-3.2-1.043-1.54-.249-3.44-.354-5.45-.373-2.11.01-4.06.134-5.58.392-1.44.259-2.38.575-2.77.814l.2-.297c.54-.277 1.42-.526 2.53-.727 1.53-.259 3.49-.383 5.62-.393z" fill="#ff0" fill-rule="evenodd"/><path d="m33.05 14.21h-.02c-.49-.306-1.7-.65-3.32-.947-1.43-.258-3.35-.383-5.71-.373-2.37-.01-4.21.115-5.79.373-1.66.297-2.82.718-3.11.928-.01.01-.03.01-.04 0s-.01-.019-.01-.038l.16-.287c0-.01.01-.01.01-.01.75-.363 1.71-.65 2.93-.861 1.48-.258 3.18-.373 5.85-.383 2.26 0 4.25.125 5.75.383 1.53.278 2.95.67 3.16.9l.16.277c.01.01 0 .029-.01.038zm-8.9-1.378c2.3 0 4.17.125 5.57.383 1.54.278 2.71.603 3.25.9l-.1-.182c-.19-.201-1.63-.603-3.12-.871-1.5-.258-3.48-.392-5.74-.383-2.67.01-4.36.125-5.84.383-1.21.21-2.16.488-2.91.852l-.1.181c.4-.22 1.51-.602 3.04-.88 1.59-.268 3.43-.383 5.8-.373.05-.01.1-.01.15-.01zm8.49.651c-.01 0-.02 0-.02-.01-.41-.43-1.97-.823-3.18-1.033-1.4-.23-3.18-.354-5.45-.373-2.2.01-4.13.143-5.57.392-1.28.23-2.31.536-2.76.814-.01.01-.03.01-.04 0s-.01-.02 0-.039l.2-.296.01-.01c.54-.268 1.42-.526 2.54-.737 1.44-.249 3.38-.383 5.62-.392 2.2 0 4.12.124 5.55.373 1.31.24 2.47.603 2.88.9 0 0 .01 0 .01.01l.23.353c.01.01 0 .029-.01.038.01 0 0 .01-.01.01zm-8.64-1.473c2.27.02 4.06.144 5.46.374 1.11.191 2.5.536 3.06.928l-.13-.192c-.41-.287-1.56-.65-2.85-.89-1.43-.248-3.35-.373-5.54-.363-2.23.01-4.17.143-5.61.392-1.11.21-1.98.46-2.52.727l-.13.192c.5-.258 1.48-.546 2.67-.756 1.45-.268 3.38-.402 5.59-.412z" fill="#000"/><path clip-rule="evenodd" d="m28.91 22.277c-1.82-.325-3.65-.373-4.92-.354-6.14.067-8.12 1.206-8.37 1.55l-.46-.717c1.56-1.082 4.91-1.694 8.86-1.627 2.05.029 3.82.163 5.31.44z" fill="#ff0" fill-rule="evenodd"/><path d="m15.63 23.493c-.01 0-.02-.01-.02-.01l-.46-.717c-.01-.01 0-.03.01-.039 1.57-1.09 4.89-1.703 8.88-1.636 2.17.038 3.91.182 5.32.44.01 0 .02.01.02.02v.028l-.42.718c-.01.01-.02.019-.03.01-1.44-.26-3.1-.383-4.91-.355-5.97.067-8.08 1.158-8.34 1.54h-.05zm-.42-.737.42.66c.16-.181.73-.536 1.96-.86 1.58-.412 3.8-.642 6.4-.67 1.81-.02 3.46.095 4.91.353l.39-.66c-1.4-.258-3.12-.402-5.27-.43-3.95-.068-7.25.535-8.81 1.607z" fill="#000"/><path clip-rule="evenodd" d="m23.96 21.818c1.71.029 3.38.096 5 .383l-.12.2c-1.5-.267-3.11-.363-4.88-.363-2.27-.019-4.56.182-6.55.737-.63.172-1.67.555-1.78.87l-.12-.18c.03-.192.66-.585 1.84-.9 2.29-.632 4.43-.737 6.61-.747zm.08-.823c1.77.029 3.6.105 5.37.45l-.12.21c-1.6-.306-3.14-.402-5.24-.44-2.27 0-4.69.163-6.88.766-.71.2-1.93.622-1.97.966l-.12-.2c.03-.307 1.08-.709 2.04-.977 2.21-.612 4.62-.775 6.92-.775z" fill="#ff0" fill-rule="evenodd"/><path d="m15.63 23.665c-.01 0-.02 0-.02-.01l-.12-.181v-.02c.04-.21.7-.612 1.86-.918 2.18-.603 4.22-.727 6.61-.747 1.62.02 3.35.087 5 .383.01 0 .02.01.02.02v.028l-.12.201c-.01.01-.02.02-.03.01-1.41-.25-3.01-.373-4.88-.354-2.51-.02-4.71.23-6.55.736-.67.182-1.66.565-1.76.862.01-.01.01-.01-.01-.01zm-.09-.21.08.134c.19-.316 1.17-.68 1.77-.842 1.84-.508 4.05-.756 6.56-.737 1.86-.01 3.45.105 4.87.354l.09-.153c-1.64-.287-3.35-.354-4.96-.374-2.38.02-4.41.154-6.59.747-1.17.316-1.77.698-1.82.87zm-.34-.488c-.01 0-.02-.01-.02-.01l-.12-.2v-.02c.03-.402 1.58-.861 2.06-.995 1.89-.527 4.09-.775 6.93-.775 1.73.028 3.58.105 5.38.45.01 0 .02.009.02.018v.02l-.12.21c-.01.01-.02.02-.03.01-1.7-.326-3.33-.412-5.24-.44-2.82.01-5 .248-6.87.765-.92.258-1.92.66-1.95.938-.02.019-.03.019-.04.029zm-.09-.23.08.134c.2-.412 1.78-.87 1.97-.919 1.87-.517 4.06-.765 6.89-.765 1.91.028 3.53.114 5.23.43l.09-.153c-1.78-.335-3.61-.411-5.33-.44-2.83.01-5.03.249-6.91.775-1.2.326-1.98.699-2.02.938z" fill="#000"/><path clip-rule="evenodd" d="m32.76 22.861-.74 1.091-2.12-1.799-5.5-3.54-6.2-3.254-3.22-1.053.69-1.215.23-.125 2 .479 6.6 3.253 3.8 2.297 3.2 2.201 1.3 1.435z" fill="#ff0" fill-rule="evenodd"/><path d="m32.02 23.981c-.01 0-.01 0-.02-.01l-2.12-1.799-5.5-3.54-6.2-3.254-3.21-1.053c-.01 0-.01-.01-.02-.019-.01-.01 0-.019 0-.019l.69-1.215.01-.01.23-.124h.02l2 .478 6.61 3.254 3.8 2.296 3.2 2.201 1.3 1.436c.01.01.01.02.01.02l-.04.229v.01l-.74 1.09c0 .029-.01.029-.02.029zm-17-9.694 3.19 1.043 6.2 3.254 5.5 3.54 2.1 1.78.72-1.062.04-.21-1.29-1.426-3.2-2.201-3.8-2.297-6.6-3.253-1.98-.47-.22.115z" fill="#000"/><path clip-rule="evenodd" d="m14.86 14.335c.56-.364 4.71 1.407 9.06 3.904 4.33 2.517 8.47 5.35 8.09 5.886l-.12.181-.06.039c.01-.01.07-.077-.01-.278-.18-.584-3.12-2.823-7.99-5.636-4.75-2.709-8.7-4.345-9.1-3.876zm18.05 8.507c.36-.68-3.49-3.445-8.26-6.153-4.88-2.65-8.4-4.21-9.04-3.742l-.14.25c0 .009.01-.02.04-.04.12-.095.31-.095.4-.095 1.11.02 4.27 1.407 8.7 3.838 1.94 1.08 8.21 4.928 8.18 6.01 0 .095.01.114-.03.162z" fill="#ff0" fill-rule="evenodd"/><path d="m31.84 24.383c-.01 0-.02 0-.02-.01-.01-.01-.01-.028.01-.038 0 0 .06-.067-.02-.249-.19-.593-3.29-2.918-7.98-5.627-4.98-2.842-8.71-4.296-9.06-3.885-.01.01-.03.01-.04.01-.01-.01-.02-.02-.01-.038l.12-.23.01-.01c.59-.382 4.75 1.407 9.09 3.905 3.9 2.258 7.94 4.966 8.12 5.77.01.057.01.115-.02.153l-.12.182s0 .01-.01.01l-.06.038c0 .01-.01.019-.01.019zm-16.83-9.924c1.09 0 4.77 1.627 8.85 3.953 4.76 2.746 7.81 5.033 8 5.655.03.077.04.134.04.182l.09-.134c.02-.029.02-.067.01-.105-.18-.775-4.31-3.531-8.1-5.732-4.23-2.44-8.43-4.259-9.02-3.914l-.07.134a.437.437 0 0 1 .2-.039zm17.74 8.642c-.01 0-.01 0-.02-.01s-.02-.029-.01-.038l.02-.02c.01-.018.01-.038.01-.085v-.039c.02-1.072-6.36-4.976-8.17-5.98-4.42-2.422-7.58-3.819-8.69-3.838h-.02c-.09 0-.26 0-.36.086-.02.01-.02.029-.03.029-.01.01-.02.019-.04.019-.01 0-.02-.02-.02-.029v-.01l.14-.248s0-.01.01-.01c.77-.555 5.36 1.723 9.07 3.742 4.31 2.44 8.67 5.435 8.27 6.191l-.14.21c0 .01-.01.02-.02.03.02 0 .01 0 0 0zm-16.86-10.058c1.12.02 4.29 1.416 8.72 3.847 1.28.708 8.22 4.852 8.2 6.029v.019l.08-.115c.33-.622-3.3-3.31-8.25-6.115-5.21-2.823-8.41-4.153-9.01-3.741l-.07.124c.11-.048.24-.048.32-.048z" fill="#000"/><path d="m18.06 19.378c0 1.56.67 2.967 1.75 3.99a6.031 6.031 0 0 0 4.18 1.685c1.64 0 3.12-.641 4.2-1.665a5.514 5.514 0 0 0 1.74-4.01v-7.578l-11.87-.01v7.59z" fill="#fff"/><path d="m23.99 25.091a6.05 6.05 0 0 1 -4.2-1.694c-1.12-1.072-1.75-2.488-1.76-3.98v-7.647l11.94.01v7.608c0 1.521-.62 2.947-1.75 4.028a6.111 6.111 0 0 1 -4.23 1.675zm-5.9-5.742v.029c0 1.493.62 2.91 1.74 3.971a5.997 5.997 0 0 0 4.16 1.675c1.58 0 3.06-.584 4.18-1.655 1.11-1.063 1.73-2.47 1.73-3.962v-7.57l-11.81-.01z" fill="#000"/><path d="m18.28 19.388c0 1.492.64 2.851 1.68 3.837a5.835 5.835 0 0 0 4.02 1.598c1.57 0 2.99-.612 4.02-1.588 1.03-.986 1.67-2.335 1.67-3.828v-7.35h-11.38l-.01 7.33zm9.1-5.14v5.178c0 .134-.01.277-.02.402a3.138 3.138 0 0 1 -.97 1.885 3.5 3.5 0 0 1 -2.4.947c-.93 0-1.76-.373-2.38-.966-.63-.603-1-1.436-1-2.287v-5.168l6.77.01z" fill="#f00"/><path d="m23.98 24.842a5.84 5.84 0 0 1 -4.04-1.608c-1.09-1.033-1.69-2.402-1.69-3.847h.05c0 1.436.59 2.785 1.67 3.81a5.787 5.787 0 0 0 4 1.588c1.51 0 2.93-.565 4-1.589 1.07-1.014 1.66-2.364 1.66-3.799v-7.35h-11.33l-.01 7.321h-.05l.01-7.368h11.43v7.378c0 1.454-.6 2.823-1.68 3.847-1.06 1.052-2.5 1.617-4.02 1.617zm0-2.153c-.89 0-1.74-.345-2.4-.976-.64-.613-1.01-1.455-1.01-2.306v-5.197h.03l6.8.01.01.01v5.186c0 .134-.01.287-.02.412a3.172 3.172 0 0 1 -.98 1.904c-.66.612-1.52.957-2.43.957zm-3.36-8.43v5.148c0 .842.36 1.674 1 2.277a3.41 3.41 0 0 0 2.37.957c.9 0 1.75-.335 2.39-.947a3.14 3.14 0 0 0 .97-1.876c.02-.124.02-.268.02-.402v-5.148l-6.75-.01z" fill="#000"/><path d="m19.02 13.961c.01-.526.41-.65.41-.65s.42.134.42.66z" fill="#ff0"/><path d="m18.68 13.32-.07.603h.41c0-.497.4-.584.41-.584s.4.115.41.584h.42l-.07-.612-1.51.01z" fill="#ff0"/><path d="m19.05 13.952h-.47l.07-.641.01-.02h1.54l.08.66h-.47v-.018c-.01-.46-.38-.565-.39-.565 0 0-.37.067-.38.565zm.82-.048h.36l-.07-.565h-.66c.04.02.1.058.16.106.09.076.2.22.21.459zm-1.23 0h.36a.636.636 0 0 1 .22-.488c.04-.038.09-.058.13-.077h-.65z" fill="#000"/><path d="m18.59 13.933h1.69c.04 0 .06.038.06.076 0 .039-.03.077-.06.077h-1.69c-.04 0-.06-.038-.06-.077-.01-.047.02-.076.06-.076z" fill="#ff0"/><path d="m20.28 14.105h-1.69c-.05 0-.09-.048-.09-.096 0-.057.04-.095.09-.095h1.69c.05 0 .09.048.09.095 0 .048-.04.096-.09.096zm-1.69-.153c-.02 0-.04.02-.04.048 0 .029.02.048.04.048h1.69c.02 0 .04-.02.04-.048 0-.029-.02-.048-.04-.048z" fill="#000"/><path d="m19.2 13.923c0-.316.23-.411.23-.402 0 0 .23.096.24.402z" fill="#ff0"/><path d="m19.69 13.952h-.49v-.029h-.03c0-.2.09-.325.17-.383 0 0 .07-.047.09-.047s.25.105.26.43zm-.46-.048h.41a.4.4 0 0 0 -.21-.354c-.04.02-.19.105-.2.354z" fill="#000"/><path d="m18.62 13.071h1.62c.03 0 .06.029.06.067 0 .039-.03.067-.06.067h-1.62c-.03 0-.06-.028-.06-.067 0-.038.03-.067.06-.067z" fill="#ff0"/><path d="m20.25 13.225h-1.62c-.05 0-.09-.039-.09-.096 0-.048.04-.096.09-.096h1.62c.05 0 .09.039.09.096-.01.057-.05.096-.09.096zm-1.63-.134c-.02 0-.04.019-.04.048 0 .028.02.047.04.047h1.62c.02 0 .04-.019.04-.047 0-.03-.02-.048-.04-.048z" fill="#000"/><path d="m18.66 13.205h1.55c.03 0 .06.029.06.067 0 .039-.03.067-.06.067h-1.55c-.03 0-.06-.028-.06-.067 0-.038.02-.067.06-.067z" fill="#ff0"/><path d="m20.21 13.359h-1.55c-.05 0-.08-.039-.08-.096 0-.048.04-.096.08-.096h1.55c.05 0 .08.039.08.096s-.03.096-.08.096zm-1.56-.134c-.02 0-.03.019-.03.048 0 .019.02.047.03.047h1.55c.02 0 .03-.019.03-.047 0-.02-.02-.048-.03-.048z" fill="#000"/><path d="m19.16 12.191h.12v.086h.09v-.086h.13v.086h.09v-.086h.13v.192c0 .028-.03.047-.05.047h-.44c-.03 0-.06-.019-.06-.047z" fill="#ff0"/><path d="m19.66 12.45h-.44c-.04 0-.08-.039-.08-.077v-.201l.02-.01h.16v.086h.04v-.086h.18v.086h.04v-.086h.18v.22c-.02.039-.06.067-.1.067zm-.48-.24v.163c0 .01.02.029.03.029h.44c.01 0 .03-.01.03-.03v-.171h-.08v.086h-.14v-.087h-.08v.086h-.14v-.086z" fill="#000"/><path d="m19.62 12.45.03.622h-.43l.03-.622z" fill="#ff0"/><path d="m19.67 13.09h-.48l.03-.67h.42zm-.43-.047h.38l-.03-.574h-.33z" fill="#000"/><path d="m19.09 12.737.01.335h-.41l.01-.335z" fill="#ff0"/><path d="m18.67 13.09.01-.382h.44l.01.383h-.46zm.06-.334-.01.287h.36l-.01-.287z" fill="#000"/><path d="m20.15 12.737.01.335h-.41l.01-.335z" fill="#ff0"/><path d="m19.73 13.09.01-.382h.44l.01.383h-.46zm.06-.334-.01.287h.36l-.01-.287z" fill="#000"/><path d="m18.63 12.488h.12v.086h.09v-.086h.12v.086h.09v-.086h.12v.191c0 .029-.02.048-.05.048h-.43c-.03 0-.06-.02-.06-.048z" fill="#ff0"/><path d="m19.12 12.756h-.43c-.04 0-.08-.038-.08-.077v-.2l.02-.01h.15v.086h.04v-.086h.17v.086h.04v-.086h.17v.22c0 .038-.04.067-.08.067zm-.47-.24v.163c0 .01.01.029.03.029h.43c.01 0 .03-.01.03-.029v-.172h-.07v.086h-.14v-.086h-.07v.086h-.14v-.086l-.07.01z" fill="#000"/><path d="m19.69 12.488h.12v.086h.09v-.086h.12v.086h.09v-.086h.12v.191c0 .029-.02.048-.05.048h-.43c-.03 0-.06-.02-.06-.048z" fill="#ff0"/><path d="m20.18 12.756h-.43c-.04 0-.08-.038-.08-.077v-.2l.02-.01h.15v.086h.04v-.086h.17v.086h.04v-.086h.17v.22c0 .038-.04.067-.08.067zm-.46-.24v.163c0 .01.01.029.03.029h.43c.01 0 .03-.01.03-.029v-.172h-.07v.086h-.14v-.086h-.07v.086h-.14v-.086l-.07.01zm-.33.125c0-.057.09-.057.09 0v.144h-.09zm-.53.21a.04.04 0 0 1 .08 0v.115h-.08zm1.06 0a.04.04 0 0 1 .08 0v.115h-.08z" fill="#000"/><path d="m27.707 13.884c.015-.528.404-.656.404-.656s.424.135.424.663z" fill="#ff0"/><path d="m27.368 13.235-.07.609h.41c0-.501.396-.582.403-.59.014 0 .396.11.41.583h.41l-.078-.616z" fill="#ff0"/><path d="m27.276 13.864.07-.636.008-.02h.014l1.52-.007.085.663h-.467v-.027c-.014-.46-.389-.562-.389-.562s-.374.075-.374.562v.027zm.113-.61-.063.563h.367c.007-.264.12-.413.226-.488a.546.546 0 0 1 .135-.074h-.665zm.976.123a.654.654 0 0 1 .19.44h.369l-.071-.569-.672.007c.05.02.1.054.163.101l.02.02z" fill="#000"/><path d="m27.269 13.844 1.69-.007c.042 0 .063.034.063.074 0 .041-.035.075-.063.075l-1.69.007c-.043 0-.064-.034-.064-.075 0-.04.035-.074.064-.074z" fill="#ff0"/><path d="m27.212 13.992c-.021-.02-.028-.04-.035-.074 0-.054.042-.095.092-.101l1.69-.007c.028 0 .05.006.063.034a.1.1 0 0 1 .029.067.104.104 0 0 1 -.092.102l-1.69.007a.11.11 0 0 1 -.057-.027zm.057-.121c-.028 0-.043.027-.043.054s.022.047.043.054l1.69-.007c.028 0 .042-.027.042-.054 0-.013 0-.027-.014-.04-.007-.007-.014-.014-.028-.014z" fill="#000"/><path d="m27.884 13.837c0-.311.227-.406.227-.406s.233.088.24.406h-.466z" fill="#ff0"/><path d="m27.863 13.857v-.027c0-.203.085-.312.149-.372.028-.027.077-.061.099-.055l.007.007c.007.007.247.102.247.426v.028zm.248-.4a.421.421 0 0 0 -.206.36h.41c0-.244-.155-.34-.204-.36z" fill="#000"/><path d="m27.305 12.984 1.619-.007c.028 0 .063.034.056.068 0 .04-.028.068-.056.068l-1.62.007c-.028 0-.063-.034-.056-.068 0-.04.021-.075.056-.068z" fill="#ff0"/><path d="m27.248 13.12a.101.101 0 0 1 -.028-.068c0-.054.042-.095.085-.095l1.619-.007c.028 0 .042.014.056.027.022.02.029.04.029.068 0 .054-.043.095-.085.095h-1.612c-.029 0-.05-.007-.064-.02zm.056-.109c-.014 0-.035.02-.035.048 0 .027.014.04.036.047l1.619-.007c.014 0 .035-.02.035-.047 0-.014-.007-.02-.014-.027s-.014-.014-.021-.007z" fill="#000"/><path d="m27.34 13.113 1.548-.007c.029 0 .057.027.057.068 0 .04-.028.067-.057.067l-1.548.007c-.028 0-.057-.027-.057-.067-.007-.034.021-.061.057-.068z" fill="#ff0"/><path d="m27.283 13.248a.101.101 0 0 1 -.028-.067c0-.055.035-.088.085-.095l1.548-.007c.043 0 .085.04.085.095a.101.101 0 0 1 -.028.067c-.014.014-.035.02-.057.027l-1.548.007c-.021.007-.035-.007-.057-.027zm1.634-.101c-.007-.007-.014-.014-.022-.007l-1.548.007c-.014 0-.035.02-.035.047s.014.04.035.047l1.548-.006c.015 0 .022-.007.022-.007a.07.07 0 0 0 .014-.04c-.007-.021-.007-.035-.014-.041z" fill="#000"/><path d="m27.841 12.104h.128v.082h.084v-.082h.128v.082h.085v-.082h.127v.19c0 .027-.021.047-.057.054h-.438c-.028 0-.057-.027-.057-.054z" fill="#ff0"/><path d="m27.835 12.341a.071.071 0 0 1 -.022-.047v-.217h.17v.082h.043v-.082h.17v.082h.042v-.082h.17v.217a.071.071 0 0 1 -.022.047c-.014.014-.035.02-.056.027h-.439a.11.11 0 0 1 -.056-.027zm.028-.216v.162c0 .014.014.027.028.027h.439c.014 0 .014 0 .02-.007.008-.006.008-.006.008-.02v-.162h-.07v.081h-.142v-.081h-.071v.081h-.141v-.081z" fill="#000"/><path d="m28.301 12.355.035.615h-.424l.021-.615z" fill="#ff0"/><path d="m27.87 12.998.028-.663h.425l.028.663zm.078-.616-.029.568h.382l-.028-.568z" fill="#000"/><path d="m27.771 12.646.014.338h-.41l.007-.331z" fill="#ff0"/><path d="m27.354 13.005.014-.38h.438l.014.38zm.063-.332-.014.284.36-.007-.014-.284z" fill="#000"/><path d="m28.839 12.64.014.338h-.41l.007-.332.389-.007z" fill="#ff0"/><path d="m28.415 13.005.014-.38h.438l.014.38zm.056-.339-.014.284.36-.006-.014-.285z" fill="#000"/><path d="m27.311 12.409h.113v.081h.085v-.081h.128v.081h.084v-.081h.128v.19c0 .027-.021.047-.05.047l-.431.007c-.028 0-.057-.027-.057-.055z" fill="#ff0"/><path d="m27.311 12.653a.072.072 0 0 1 -.021-.048v-.216h.17v.08h.042v-.08h.17v.08h.042v-.08h.17v.216c0 .04-.035.075-.078.075l-.431.006c-.029-.013-.05-.02-.064-.033zm.021-.224v.163c0 .013.014.027.029.027l.431-.007c.014 0 .028-.014.028-.027v-.163h-.07v.082h-.142v-.082h-.07v.082h-.142v-.082z" fill="#000"/><path d="m28.372 12.41h.113v.08h.085v-.08h.127v.08h.085v-.08h.127v.189c0 .027-.02.047-.05.047l-.43.007c-.029 0-.057-.027-.057-.054v-.19z" fill="#ff0"/><path d="m28.372 12.64a.072.072 0 0 1 -.021-.048v-.203l.014-.014h.155v.082h.043v-.082h.17v.082h.042v-.082h.17v.217c0 .04-.036.074-.078.074l-.431.007c-.029 0-.05-.02-.064-.034zm.021-.21v.162c0 .013.014.027.028.027l.432-.007c.014 0 .028-.013.028-.027v-.162h-.07v.08h-.142v-.08h-.07v.08h-.142v-.08zm-.318.128c-.007-.06.092-.06.085 0v.149h-.085zm-.531.21c0-.055.085-.055.085 0v.108h-.085zm1.061 0c0-.055.085-.055.085 0v.108h-.085z" fill="#000"/><path d="m23.59 13.961c.01-.526.41-.65.41-.65s.42.134.42.66z" fill="#ff0"/><path d="m23.25 13.32-.07.603h.41c0-.497.4-.584.41-.584s.4.115.41.584h.42l-.07-.612-1.51.01z" fill="#ff0"/><path d="m23.62 13.952h-.47l.07-.65h1.55l.08.66h-.47v-.02c-.01-.459-.38-.564-.39-.564 0 0-.37.067-.38.564zm.82-.048h.36l-.07-.565h-.66c.04.02.1.058.16.106.09.076.2.22.21.46zm-1.23 0h.36a.636.636 0 0 1 .22-.488c.04-.038.09-.057.13-.077h-.65z" fill="#000"/><path d="m23.16 13.933h1.69c.04 0 .06.038.06.076 0 .039-.03.077-.06.077h-1.69c-.04 0-.06-.038-.06-.077-.01-.047.02-.076.06-.076z" fill="#ff0"/><path d="m24.85 14.105h-1.69c-.05 0-.09-.048-.09-.096 0-.057.04-.095.09-.095h1.69c.05 0 .09.048.09.095 0 .048-.04.096-.09.096zm-1.69-.153c-.02 0-.04.02-.04.048 0 .029.02.048.04.048h1.69c.02 0 .04-.02.04-.048 0-.029-.02-.048-.04-.048z" fill="#000"/><path d="m23.77 13.923c0-.316.23-.411.23-.402 0 0 .23.096.24.402z" fill="#ff0"/><path d="m24.26 13.952h-.49v-.029h-.03c0-.2.09-.325.17-.383 0 0 .07-.047.09-.047s.25.105.26.43zm-.46-.048h.41a.4.4 0 0 0 -.21-.354c-.04.02-.19.105-.2.354z" fill="#000"/><path d="m23.19 13.071h1.62c.03 0 .06.029.06.067 0 .039-.03.067-.06.067h-1.62c-.03 0-.06-.028-.06-.067 0-.038.03-.067.06-.067z" fill="#ff0"/><path d="m24.82 13.225h-1.62c-.05 0-.09-.039-.09-.096 0-.048.04-.096.09-.096h1.62c.05 0 .09.039.09.096-.01.057-.05.096-.09.096zm-1.63-.134c-.02 0-.04.019-.04.048 0 .028.02.047.04.047h1.62c.02 0 .04-.019.04-.047 0-.03-.02-.048-.04-.048z" fill="#000"/><path d="m23.23 13.205h1.55c.03 0 .06.029.06.067 0 .039-.03.067-.06.067h-1.55c-.03 0-.06-.028-.06-.067 0-.038.02-.067.06-.067z" fill="#ff0"/><path d="m24.78 13.359h-1.55c-.05 0-.08-.039-.08-.096 0-.048.04-.096.08-.096h1.55c.05 0 .08.039.08.096s-.03.096-.08.096zm-1.55-.134c-.02 0-.03.019-.03.048 0 .019.02.047.03.047h1.55c.02 0 .03-.019.03-.047 0-.02-.02-.048-.03-.048z" fill="#000"/><path d="m23.73 12.191h.12v.086h.09v-.086h.13v.086h.09v-.086h.13v.192c0 .028-.03.047-.05.047h-.44c-.03 0-.06-.019-.06-.047z" fill="#ff0"/><path d="m24.23 12.45h-.44c-.04 0-.08-.039-.08-.077v-.201l.02-.01h.16v.086h.04v-.086h.18v.086h.04v-.086h.18v.22c-.02.039-.06.067-.1.067zm-.48-.24v.163c0 .01.02.029.03.029h.44c.01 0 .03-.01.03-.03v-.171h-.08v.086h-.14v-.087h-.08v.086h-.14v-.086z" fill="#000"/><path d="m24.19 12.45.03.622h-.43l.03-.622z" fill="#ff0"/><path d="m24.24 13.09h-.48l.03-.67h.42zm-.43-.047h.38l-.03-.574h-.33z" fill="#000"/><path d="m23.67 12.737.01.335h-.41l.01-.335z" fill="#ff0"/><path d="m23.24 13.09.01-.382h.44l.01.383h-.46zm.06-.334-.01.287h.36l-.01-.287z" fill="#000"/><path d="m24.73 12.737.01.335h-.41l.01-.335z" fill="#ff0"/><path d="m24.3 13.09.01-.382h.44l.01.383h-.46zm.06-.334-.01.287h.36l-.01-.287z" fill="#000"/><path d="m23.2 12.488h.12v.086h.09v-.086h.12v.086h.09v-.086h.12v.191c0 .029-.02.048-.05.048h-.43c-.03 0-.06-.02-.06-.048z" fill="#ff0"/><path d="m23.69 12.756h-.43c-.04 0-.08-.038-.08-.077v-.2l.02-.01h.15v.086h.04v-.086h.17v.086h.04v-.086h.17v.22c0 .038-.04.067-.08.067zm-.46-.24v.163c0 .01.01.029.03.029h.43c.01 0 .03-.01.03-.029v-.172h-.07v.086h-.14v-.086h-.07v.086h-.14v-.086l-.07.01z" fill="#000"/><path d="m24.26 12.488h.12v.086h.09v-.086h.12v.086h.09v-.086h.12v.191c0 .029-.02.048-.05.048h-.43c-.03 0-.06-.02-.06-.048z" fill="#ff0"/><path d="m24.75 12.756h-.43c-.04 0-.08-.038-.08-.077v-.2l.02-.01h.15v.086h.04v-.086h.17v.086h.04v-.086h.17v.22c0 .038-.04.067-.08.067zm-.46-.24v.163c0 .01.01.029.03.029h.43c.01 0 .03-.01.03-.029v-.172h-.07v.086h-.14v-.086h-.07v.086h-.14v-.086l-.07.01zm-.33.125c0-.057.09-.057.09 0v.144h-.09zm-.53.21a.04.04 0 0 1 .08 0v.115h-.08zm1.06 0a.04.04 0 0 1 .08 0v.115h-.08z" fill="#000"/><path d="m23.26 18.555c0 .21.08.402.22.546a.727.727 0 0 0 1.06 0 .773.773 0 0 0 .22-.546v-1.033h-1.5z" fill="#039"/><path d="m23.61 18.058c.083 0 .15-.065.15-.144a.147.147 0 0 0 -.15-.144.147.147 0 0 0 -.15.144c0 .08.067.144.15.144zm.83 0c.082 0 .15-.065.15-.144a.147.147 0 0 0 -.15-.144.147.147 0 0 0 -.15.144c0 .08.067.144.15.144zm-.42.382c.082 0 .15-.064.15-.143a.147.147 0 0 0 -.15-.144.147.147 0 0 0 -.15.144c0 .08.067.143.15.143zm-.41.403c.083 0 .15-.065.15-.144a.147.147 0 0 0 -.15-.144.147.147 0 0 0 -.15.144c0 .08.067.143.15.143zm.83 0c.082 0 .15-.065.15-.144a.147.147 0 0 0 -.15-.144.147.147 0 0 0 -.15.144c0 .08.067.143.15.143z" fill="#fff"/><path d="m23.26 16.067c0 .21.08.402.22.545a.727.727 0 0 0 1.06 0 .774.774 0 0 0 .22-.545v-1.034h-1.5z" fill="#039"/><path d="m23.61 15.57c.083 0 .15-.065.15-.145a.147.147 0 0 0 -.15-.143.147.147 0 0 0 -.15.143c0 .08.067.144.15.144zm.83 0c.082 0 .15-.065.15-.145a.147.147 0 0 0 -.15-.143.147.147 0 0 0 -.15.143c0 .08.067.144.15.144zm-.42.382c.082 0 .15-.065.15-.144a.147.147 0 0 0 -.15-.143.147.147 0 0 0 -.15.143c0 .08.067.144.15.144zm-.41.402c.083 0 .15-.064.15-.144a.147.147 0 0 0 -.15-.143.147.147 0 0 0 -.15.143c0 .08.067.144.15.144zm.83 0c.082 0 .15-.064.15-.144a.147.147 0 0 0 -.15-.143.147.147 0 0 0 -.15.143c0 .08.067.144.15.144z" fill="#fff"/><path d="m21.18 18.555c0 .21.08.402.22.546a.727.727 0 0 0 1.06 0 .773.773 0 0 0 .22-.546v-1.033h-1.5z" fill="#039"/><path d="m21.53 18.058c.083 0 .15-.065.15-.144a.147.147 0 0 0 -.15-.144.147.147 0 0 0 -.15.144c0 .08.067.144.15.144zm.83 0c.082 0 .15-.065.15-.144a.147.147 0 0 0 -.15-.144.147.147 0 0 0 -.15.144c0 .08.067.144.15.144zm-.42.382c.082 0 .15-.064.15-.143a.147.147 0 0 0 -.15-.144.147.147 0 0 0 -.15.144c0 .08.067.143.15.143zm-.41.403c.083 0 .15-.065.15-.144a.147.147 0 0 0 -.15-.144.147.147 0 0 0 -.15.144c0 .08.067.143.15.143zm.83 0c.082 0 .15-.065.15-.144a.147.147 0 0 0 -.15-.144.147.147 0 0 0 -.15.144c0 .08.067.143.15.143z" fill="#fff"/><path d="m25.34 18.555c0 .21.08.402.22.546a.727.727 0 0 0 1.06 0 .773.773 0 0 0 .22-.546v-1.033h-1.5z" fill="#039"/><path d="m25.68 18.058c.083 0 .15-.065.15-.144a.147.147 0 0 0 -.15-.144.147.147 0 0 0 -.15.144c0 .08.067.144.15.144zm.83 0c.083 0 .15-.065.15-.144a.147.147 0 0 0 -.15-.144.147.147 0 0 0 -.15.144c0 .08.067.144.15.144zm-.41.382c.082 0 .15-.064.15-.143a.147.147 0 0 0 -.15-.144.147.147 0 0 0 -.15.144c0 .08.067.143.15.143zm-.42.403c.083 0 .15-.065.15-.144a.147.147 0 0 0 -.15-.144.147.147 0 0 0 -.15.144c0 .08.067.143.15.143zm.83 0c.083 0 .15-.065.15-.144a.147.147 0 0 0 -.15-.144.147.147 0 0 0 -.15.144c0 .08.067.143.15.143z" fill="#fff"/><path d="m23.26 21.024c0 .21.08.402.22.545a.727.727 0 0 0 1.06 0 .773.773 0 0 0 .22-.545v-1.034h-1.5z" fill="#039"/><path d="m23.61 20.526c.083 0 .15-.064.15-.143a.147.147 0 0 0 -.15-.144.147.147 0 0 0 -.15.144c0 .079.067.143.15.143zm.83 0c.082 0 .15-.064.15-.143a.147.147 0 0 0 -.15-.144.147.147 0 0 0 -.15.144c0 .079.067.143.15.143zm-.42.383c.082 0 .15-.064.15-.144a.147.147 0 0 0 -.15-.143.147.147 0 0 0 -.15.143c0 .08.067.144.15.144zm-.41.402c.083 0 .15-.064.15-.143a.147.147 0 0 0 -.15-.144.147.147 0 0 0 -.15.143c0 .08.067.144.15.144zm.83 0c.082 0 .15-.064.15-.143a.147.147 0 0 0 -.15-.144.147.147 0 0 0 -.15.143c0 .08.067.144.15.144z" fill="#fff"/></g></svg>